<svg class="vector" width="300px" height="300px" xmlns="http://www.w3.org/2000/svg" baseProfile="full" version="1.1" style="width: 300px; height: 300px; stroke: black; stroke-width: 25; fill: none; stroke-linecap: round; stroke-linejoin: round;"><g transform="translate(0,0)"><path id="layer_3" d="M150,60 A-90,90 0 0,0 60,150 A0,0 0 0,0 60,150 A90,90 0 0,0 150,240 A0,0 0 0,0 150,240 A90,-90 0 0,0 240,150 M240,120 L240,120 L210,150 M270,150 L270,150 L240,120 " style="stroke: black;"></path><path id="layer_2" d="M150,60 A-90,90 0 0,0 60,150 A0,0 0 0,0 60,150 A90,90 0 0,0 150,240 A0,0 0 0,0 150,240 A90,-90 0 0,0 240,150 M240,120 L240,120 L210,150 M270,150 L270,150 L240,120 " style="stroke: black;"></path><path id="layer_1" d="M150,60 A-90,90 0 0,0 60,150 A0,0 0 0,0 60,150 A90,90 0 0,0 150,240 A0,0 0 0,0 150,240 A90,-90 0 0,0 240,150 M240,120 L240,120 L210,150 M270,150 L270,150 L240,120 " style="stroke: black;"></path></g><g><path id="mirror_layer_3" d="M0,0" transform="" style="stroke: black;"></path><path id="mirror_layer_2" d="M0,0" transform="" style="stroke: black;"></path><path id="mirror_layer_1" d="M0,0" transform="" style="stroke: black;"></path></g></svg>